<svg xmlns="http://www.w3.org/2000/svg" xmlns:xlink="http://www.w3.org/1999/xlink" width="559" zoomAndPan="magnify" viewBox="0 0 419.25 297.749991" height="397" preserveAspectRatio="xMidYMid meet" version="1.0"><defs><g/><clipPath id="d2bd8edefd"><path d="M 0 0.140625 L 418.5 0.140625 L 418.5 297.359375 L 0 297.359375 Z M 0 0.140625 " clip-rule="nonzero"/></clipPath><clipPath id="e2fedcbeb1"><path d="M 0 0.140625 L 418.222656 0.140625 L 418.222656 297.164062 L 0 297.164062 Z M 0 0.140625 " clip-rule="nonzero"/></clipPath><clipPath id="da5a365ffe"><path d="M 292 137 L 302 137 L 302 148 L 292 148 Z M 292 137 " clip-rule="nonzero"/></clipPath><clipPath id="9b32db21b2"><path d="M 291.09375 139.171875 L 300.035156 135.347656 L 304.152344 144.980469 L 295.210938 148.804688 Z M 291.09375 139.171875 " clip-rule="nonzero"/></clipPath><clipPath id="0dc947590c"><path d="M 291.09375 139.171875 L 300.035156 135.347656 L 304.152344 144.980469 L 295.210938 148.804688 Z M 291.09375 139.171875 " clip-rule="nonzero"/></clipPath><clipPath id="7c3024e0bb"><path d="M 291.09375 139.171875 L 300.035156 135.347656 L 304.152344 144.980469 L 295.210938 148.804688 Z M 291.09375 139.171875 " clip-rule="nonzero"/></clipPath><clipPath id="8a6755aff8"><rect x="0" width="419" y="0" height="298"/></clipPath></defs><g clip-path="url(#d2bd8edefd)"><path fill="#ffffff" d="M 0 0.140625 L 418.5 0.140625 L 418.5 297.359375 L 0 297.359375 Z M 0 0.140625 " fill-opacity="1" fill-rule="nonzero"/><g transform="matrix(1, 0, 0, 1, 0, 0.000000000000006772)"><g clip-path="url(#8a6755aff8)"><g clip-path="url(#e2fedcbeb1)"><path fill="#224433" d="M 0 0.140625 L 418.222656 0.140625 L 418.222656 297.164062 L 0 297.164062 Z M 0 0.140625 " fill-opacity="1" fill-rule="nonzero"/></g><g fill="#cc9966" fill-opacity="1"><g transform="translate(74.407382, 157.731941)"><g><path d="M 9 0 L 9 -0.546875 C 9.488281 -1.109375 9.894531 -2.378906 10.21875 -4.359375 C 10.550781 -6.347656 10.71875 -8.992188 10.71875 -12.296875 L 10.71875 -30.390625 L 7.921875 -30.390625 C 6.003906 -30.390625 4.46875 -29.8125 3.3125 -28.65625 C 2.15625 -27.5 1.546875 -25.601562 1.484375 -22.96875 L 0.8125 -22.96875 L 0.8125 -31.515625 L 29.1875 -31.515625 L 29.1875 -22.96875 L 28.5 -22.96875 C 28.445312 -25.601562 27.84375 -27.5 26.6875 -28.65625 C 25.53125 -29.8125 23.972656 -30.390625 22.015625 -30.390625 L 19.1875 -30.390625 L 19.1875 -12.296875 C 19.1875 -8.992188 19.347656 -6.347656 19.671875 -4.359375 C 20.003906 -2.378906 20.410156 -1.109375 20.890625 -0.546875 L 20.890625 0 Z M 9 0 "/></g></g></g><g fill="#cc9966" fill-opacity="1"><g transform="translate(104.389695, 157.731941)"><g><path d="M 1.03125 0 L 1.03125 -0.546875 C 1.507812 -1.109375 1.914062 -2.390625 2.25 -4.390625 C 2.582031 -6.390625 2.75 -9.039062 2.75 -12.34375 L 2.75 -19.1875 C 2.75 -22.519531 2.582031 -25.175781 2.25 -27.15625 C 1.914062 -29.132812 1.507812 -30.410156 1.03125 -30.984375 L 1.03125 -31.515625 L 12.96875 -31.515625 L 12.96875 -30.984375 C 12.632812 -30.554688 12.332031 -29.742188 12.0625 -28.546875 C 11.789062 -27.347656 11.582031 -25.785156 11.4375 -23.859375 C 12.25 -24.078125 13.054688 -24.09375 13.859375 -23.90625 C 14.671875 -23.726562 15.398438 -23.382812 16.046875 -22.875 C 16.691406 -22.363281 17.132812 -21.71875 17.375 -20.9375 L 17.75 -20.9375 C 18.101562 -22.082031 18.859375 -22.910156 20.015625 -23.421875 C 21.171875 -23.929688 22.332031 -24.066406 23.5 -23.828125 C 23.382812 -25.773438 23.191406 -27.34375 22.921875 -28.53125 C 22.648438 -29.71875 22.347656 -30.535156 22.015625 -30.984375 L 22.015625 -31.515625 L 33.90625 -31.515625 L 33.90625 -30.984375 C 33.425781 -30.410156 33.019531 -29.132812 32.6875 -27.15625 C 32.363281 -25.175781 32.203125 -22.519531 32.203125 -19.1875 L 32.203125 -12.34375 C 32.203125 -9.039062 32.363281 -6.390625 32.6875 -4.390625 C 33.019531 -2.390625 33.425781 -1.109375 33.90625 -0.546875 L 33.90625 0 L 22.015625 0 L 22.015625 -0.546875 C 22.492188 -1.109375 22.898438 -2.390625 23.234375 -4.390625 C 23.566406 -6.390625 23.734375 -9.039062 23.734375 -12.34375 L 23.734375 -21.796875 C 22.617188 -22.128906 21.503906 -22.148438 20.390625 -21.859375 C 19.285156 -21.578125 18.550781 -21.0625 18.1875 -20.3125 C 18.34375 -20.101562 18.457031 -19.832031 18.53125 -19.5 C 18.601562 -19.164062 18.640625 -18.847656 18.640625 -18.546875 C 18.640625 -18.066406 18.554688 -17.5625 18.390625 -17.03125 C 18.222656 -16.507812 17.945312 -16.25 17.5625 -16.25 C 17.175781 -16.25 16.898438 -16.507812 16.734375 -17.03125 C 16.566406 -17.5625 16.484375 -18.066406 16.484375 -18.546875 C 16.484375 -18.847656 16.523438 -19.164062 16.609375 -19.5 C 16.703125 -19.832031 16.8125 -20.101562 16.9375 -20.3125 C 16.695312 -20.820312 16.265625 -21.222656 15.640625 -21.515625 C 15.023438 -21.816406 14.328125 -22 13.546875 -22.0625 C 12.773438 -22.125 12.015625 -22.035156 11.265625 -21.796875 L 11.265625 -12.34375 C 11.265625 -9.039062 11.425781 -6.390625 11.75 -4.390625 C 12.082031 -2.390625 12.488281 -1.109375 12.96875 -0.546875 L 12.96875 0 Z M 1.03125 0 "/></g></g></g><g fill="#cc9966" fill-opacity="1"><g transform="translate(139.324037, 157.731941)"><g><path d="M 0.578125 0 L 0.578125 -0.546875 C 1.242188 -1.109375 2.054688 -2.378906 3.015625 -4.359375 C 3.972656 -6.347656 4.960938 -9.007812 5.984375 -12.34375 L 8.421875 -19.1875 C 9.472656 -22.519531 10.132812 -25.175781 10.40625 -27.15625 C 10.675781 -29.132812 10.675781 -30.410156 10.40625 -30.984375 L 10.40625 -31.515625 L 21.4375 -31.515625 L 21.4375 -30.984375 C 21.164062 -30.410156 21.179688 -29.132812 21.484375 -27.15625 C 21.785156 -25.175781 22.445312 -22.519531 23.46875 -19.1875 L 25.84375 -12.34375 C 26.894531 -9.007812 27.898438 -6.347656 28.859375 -4.359375 C 29.828125 -2.378906 30.640625 -1.109375 31.296875 -0.546875 L 31.296875 0 L 19.359375 0 L 19.359375 -0.546875 C 19.660156 -1.109375 19.660156 -2.378906 19.359375 -4.359375 C 19.054688 -6.347656 18.382812 -9.007812 17.34375 -12.34375 L 15.53125 -17.65625 C 15.019531 -17.738281 14.460938 -17.640625 13.859375 -17.359375 C 13.265625 -17.078125 12.921875 -16.722656 12.828125 -16.296875 C 12.953125 -16.148438 13.039062 -15.925781 13.09375 -15.625 C 13.15625 -15.320312 13.1875 -15.050781 13.1875 -14.8125 C 13.1875 -14.394531 13.117188 -13.96875 12.984375 -13.53125 C 12.847656 -13.09375 12.617188 -12.875 12.296875 -12.875 C 11.960938 -12.875 11.71875 -13.09375 11.5625 -13.53125 C 11.414062 -13.96875 11.34375 -14.394531 11.34375 -14.8125 C 11.34375 -15.050781 11.375 -15.320312 11.4375 -15.625 C 11.5 -15.925781 11.585938 -16.148438 11.703125 -16.296875 C 11.648438 -16.722656 11.320312 -17.078125 10.71875 -17.359375 C 10.113281 -17.640625 9.539062 -17.738281 9 -17.65625 L 7.203125 -12.34375 C 6.179688 -9.007812 5.519531 -6.347656 5.21875 -4.359375 C 4.914062 -2.378906 4.914062 -1.109375 5.21875 -0.546875 L 5.21875 0 Z M 12.0625 -16.84375 L 12.46875 -16.84375 C 12.53125 -17.46875 12.816406 -18.023438 13.328125 -18.515625 C 13.835938 -19.015625 14.410156 -19.3125 15.046875 -19.40625 L 12.515625 -26.890625 L 12.015625 -26.890625 L 9.546875 -19.40625 C 10.148438 -19.3125 10.710938 -19.015625 11.234375 -18.515625 C 11.753906 -18.023438 12.03125 -17.46875 12.0625 -16.84375 Z M 12.0625 -16.84375 "/></g></g></g><g fill="#cc9966" fill-opacity="1"><g transform="translate(171.197129, 157.731941)"><g><path d="M 1.03125 0 L 1.03125 -0.546875 C 1.570312 -1.054688 2.0625 -2.316406 2.5 -4.328125 C 2.9375 -6.335938 3.15625 -9.007812 3.15625 -12.34375 L 3.15625 -24.140625 C 3.15625 -25.816406 2.953125 -27.253906 2.546875 -28.453125 C 2.140625 -29.660156 1.695312 -30.503906 1.21875 -30.984375 L 1.21875 -31.515625 L 13.28125 -31.515625 L 13.28125 -30.984375 C 13.101562 -30.410156 13.34375 -29.132812 14 -27.15625 C 14.664062 -25.175781 15.804688 -22.519531 17.421875 -19.1875 L 25.078125 -4.953125 L 25.578125 -4.953125 L 25.578125 -19.1875 C 25.578125 -22.519531 25.40625 -25.175781 25.0625 -27.15625 C 24.71875 -29.132812 24.289062 -30.410156 23.78125 -30.984375 L 23.78125 -31.515625 L 28.734375 -31.515625 L 28.734375 -30.984375 C 28.191406 -30.472656 27.71875 -29.21875 27.3125 -27.21875 C 26.90625 -25.226562 26.703125 -22.550781 26.703125 -19.1875 L 26.703125 0 L 16.53125 0 L 16.53125 -0.546875 C 16.707031 -1.109375 16.476562 -2.394531 15.84375 -4.40625 C 15.21875 -6.425781 14.066406 -9.070312 12.390625 -12.34375 L 4.765625 -26.34375 L 4.28125 -26.34375 L 4.28125 -12.34375 C 4.28125 -9.007812 4.441406 -6.347656 4.765625 -4.359375 C 5.097656 -2.378906 5.488281 -1.109375 5.9375 -0.546875 L 5.9375 0 Z M 1.03125 0 "/></g></g></g><g fill="#cc9966" fill-opacity="1"><g transform="translate(200.954351, 157.731941)"><g><path d="M 27.203125 0.578125 C 25.367188 0.578125 23.796875 0.257812 22.484375 -0.375 C 21.179688 -1.019531 20.109375 -1.875 19.265625 -2.9375 C 18.429688 -4.007812 17.78125 -5.164062 17.3125 -6.40625 C 16.84375 -7.65625 16.519531 -8.882812 16.34375 -10.09375 C 16.164062 -11.53125 16.128906 -12.847656 16.234375 -14.046875 C 16.335938 -15.242188 16.445312 -16.300781 16.5625 -17.21875 C 16.6875 -18.132812 16.691406 -18.863281 16.578125 -19.40625 L 16.078125 -19.546875 C 15.898438 -19.148438 15.628906 -18.835938 15.265625 -18.609375 C 14.898438 -18.390625 14.570312 -18.28125 14.28125 -18.28125 C 13.644531 -18.28125 13.144531 -18.457031 12.78125 -18.8125 C 12.425781 -19.175781 12.25 -19.597656 12.25 -20.078125 C 12.25 -20.617188 12.425781 -21.0625 12.78125 -21.40625 C 13.144531 -21.757812 13.703125 -21.9375 14.453125 -21.9375 C 14.628906 -21.9375 14.832031 -21.910156 15.0625 -21.859375 C 15.289062 -21.816406 15.476562 -21.75 15.625 -21.65625 C 15.957031 -22.195312 16.367188 -22.894531 16.859375 -23.75 C 17.359375 -24.601562 17.953125 -25.507812 18.640625 -26.46875 C 19.328125 -27.4375 20.109375 -28.347656 20.984375 -29.203125 C 21.859375 -30.054688 22.828125 -30.753906 23.890625 -31.296875 C 24.953125 -31.835938 26.097656 -32.109375 27.328125 -32.109375 C 29.523438 -32.109375 31.242188 -31.484375 32.484375 -30.234375 C 33.734375 -28.992188 34.359375 -27.304688 34.359375 -25.171875 C 34.359375 -24.003906 34.101562 -22.929688 33.59375 -21.953125 C 33.082031 -20.972656 32.382812 -20.191406 31.5 -19.609375 C 30.613281 -19.023438 29.570312 -18.734375 28.375 -18.734375 C 27.164062 -18.734375 26.15625 -19.03125 25.34375 -19.625 C 24.539062 -20.226562 23.988281 -20.960938 23.6875 -21.828125 C 23.382812 -22.703125 23.351562 -23.5625 23.59375 -24.40625 L 24.234375 -24.40625 C 24.015625 -23.75 24.160156 -23.117188 24.671875 -22.515625 C 25.179688 -21.910156 25.8125 -21.609375 26.5625 -21.609375 C 27.46875 -21.609375 28.175781 -21.9375 28.6875 -22.59375 C 29.195312 -23.257812 29.453125 -24.0625 29.453125 -25 C 29.453125 -26.070312 29.082031 -26.921875 28.34375 -27.546875 C 27.613281 -28.179688 26.691406 -28.5 25.578125 -28.5 C 24.585938 -28.5 23.640625 -28.226562 22.734375 -27.6875 C 21.835938 -27.15625 20.988281 -26.484375 20.1875 -25.671875 C 19.394531 -24.859375 18.664062 -24.023438 18 -23.171875 C 17.34375 -22.316406 16.757812 -21.570312 16.25 -20.9375 L 16.25 -20.578125 C 17.269531 -20.273438 18.148438 -19.671875 18.890625 -18.765625 C 19.628906 -17.867188 20.28125 -16.8125 20.84375 -15.59375 C 21.414062 -14.382812 21.988281 -13.140625 22.5625 -11.859375 C 23.132812 -10.585938 23.753906 -9.40625 24.421875 -8.3125 C 25.097656 -7.21875 25.898438 -6.320312 26.828125 -5.625 C 27.765625 -4.9375 28.878906 -4.59375 30.171875 -4.59375 C 31.609375 -4.59375 32.785156 -5.09375 33.703125 -6.09375 C 34.617188 -7.101562 35.078125 -8.300781 35.078125 -9.6875 C 35.078125 -10.882812 34.738281 -11.890625 34.0625 -12.703125 C 33.382812 -13.515625 32.460938 -13.921875 31.296875 -13.921875 C 30.484375 -13.921875 29.789062 -13.6875 29.21875 -13.21875 C 28.65625 -12.75 28.265625 -12.171875 28.046875 -11.484375 C 27.835938 -10.796875 27.867188 -10.117188 28.140625 -9.453125 L 27.734375 -9.1875 C 27.140625 -9.25 26.59375 -9.59375 26.09375 -10.21875 C 25.601562 -10.851562 25.359375 -11.632812 25.359375 -12.5625 C 25.359375 -13.757812 25.820312 -14.800781 26.75 -15.6875 C 27.675781 -16.570312 28.875 -17.015625 30.34375 -17.015625 C 31.425781 -17.015625 32.414062 -16.722656 33.3125 -16.140625 C 34.21875 -15.554688 34.945312 -14.71875 35.5 -13.625 C 36.0625 -12.53125 36.34375 -11.203125 36.34375 -9.640625 C 36.34375 -8.523438 36.175781 -7.375 35.84375 -6.1875 C 35.507812 -5 34.984375 -3.894531 34.265625 -2.875 C 33.546875 -1.851562 32.597656 -1.019531 31.421875 -0.375 C 30.253906 0.257812 28.847656 0.578125 27.203125 0.578125 Z M 1.03125 0 L 1.03125 -0.546875 C 1.507812 -1.109375 1.914062 -2.390625 2.25 -4.390625 C 2.582031 -6.390625 2.75 -9.039062 2.75 -12.34375 L 2.75 -19.1875 C 2.75 -22.519531 2.582031 -25.175781 2.25 -27.15625 C 1.914062 -29.132812 1.507812 -30.410156 1.03125 -30.984375 L 1.03125 -31.515625 L 12.921875 -31.515625 L 12.921875 -30.984375 C 12.441406 -30.410156 12.046875 -29.132812 11.734375 -27.15625 C 11.421875 -25.175781 11.265625 -22.519531 11.265625 -19.1875 L 11.265625 -12.34375 C 11.265625 -9.039062 11.421875 -6.390625 11.734375 -4.390625 C 12.046875 -2.390625 12.441406 -1.109375 12.921875 -0.546875 L 12.921875 0 Z M 1.03125 0 "/></g></g></g><g fill="#cc9966" fill-opacity="1"><g transform="translate(237.779472, 157.731941)"><g/></g></g><g fill="#cc9966" fill-opacity="1"><g transform="translate(251.014907, 157.731941)"><g><path d="M 8.109375 0 L 8.109375 -0.546875 C 8.585938 -1.109375 8.988281 -2.378906 9.3125 -4.359375 C 9.644531 -6.347656 9.8125 -9.007812 9.8125 -12.34375 L 9.8125 -16.125 L 8.15625 -19.1875 C 6.53125 -22.519531 5.054688 -25.175781 3.734375 -27.15625 C 2.410156 -29.132812 1.359375 -30.410156 0.578125 -30.984375 L 0.578125 -31.515625 L 12.46875 -31.515625 L 12.46875 -30.984375 C 12.351562 -30.503906 12.535156 -29.523438 13.015625 -28.046875 C 13.492188 -26.578125 14.378906 -24.550781 15.671875 -21.96875 L 17.5625 -17.875 L 17.96875 -17.875 L 19.859375 -21.9375 C 20.992188 -24.15625 21.800781 -26.070312 22.28125 -27.6875 C 22.769531 -29.3125 22.910156 -30.410156 22.703125 -30.984375 L 22.703125 -31.515625 L 27.65625 -31.515625 L 27.65625 -30.984375 C 26.84375 -30.472656 25.765625 -29.210938 24.421875 -27.203125 C 23.085938 -25.191406 21.625 -22.535156 20.03125 -19.234375 L 18.28125 -16.03125 L 18.28125 -12.34375 C 18.28125 -9.007812 18.441406 -6.347656 18.765625 -4.359375 C 19.097656 -2.378906 19.507812 -1.109375 20 -0.546875 L 20 0 Z M 8.109375 0 "/></g></g></g><g fill="#cc9966" fill-opacity="1"><g transform="translate(279.241505, 157.731941)"><g><path d="M 17.703125 0.578125 C 14.210938 0.578125 11.195312 -0.140625 8.65625 -1.578125 C 6.125 -3.015625 4.179688 -4.960938 2.828125 -7.421875 C 1.484375 -9.890625 0.8125 -12.671875 0.8125 -15.765625 C 0.8125 -18.859375 1.484375 -21.632812 2.828125 -24.09375 C 4.179688 -26.550781 6.125 -28.5 8.65625 -29.9375 C 11.195312 -31.382812 14.210938 -32.109375 17.703125 -32.109375 C 21.179688 -32.109375 24.179688 -31.382812 26.703125 -29.9375 C 29.222656 -28.5 31.15625 -26.550781 32.5 -24.09375 C 33.851562 -21.632812 34.53125 -18.859375 34.53125 -15.765625 C 34.53125 -12.671875 33.851562 -9.890625 32.5 -7.421875 C 31.15625 -4.960938 29.222656 -3.015625 26.703125 -1.578125 C 24.179688 -0.140625 21.179688 0.578125 17.703125 0.578125 Z M 17.703125 -0.5 C 19.441406 -0.5 20.894531 -1.117188 22.0625 -2.359375 C 23.238281 -3.609375 24.125 -5.375 24.71875 -7.65625 C 25.320312 -9.9375 25.625 -12.640625 25.625 -15.765625 C 25.625 -18.878906 25.320312 -21.578125 24.71875 -23.859375 C 24.125 -26.140625 23.238281 -27.90625 22.0625 -29.15625 C 20.894531 -30.40625 19.441406 -31.03125 17.703125 -31.03125 C 15.953125 -31.03125 14.476562 -30.40625 13.28125 -29.15625 C 12.082031 -27.90625 11.179688 -26.140625 10.578125 -23.859375 C 9.984375 -21.578125 9.6875 -18.878906 9.6875 -15.765625 C 9.6875 -12.640625 9.984375 -9.9375 10.578125 -7.65625 C 11.179688 -5.375 12.082031 -3.609375 13.28125 -2.359375 C 14.476562 -1.117188 15.953125 -0.5 17.703125 -0.5 Z M 17.703125 -0.5 "/></g></g></g><g fill="#cc9966" fill-opacity="1"><g transform="translate(314.581015, 157.731941)"><g><path d="M 14.3125 0.578125 C 11.882812 0.578125 9.789062 0.0625 8.03125 -0.96875 C 6.28125 -2 4.921875 -3.414062 3.953125 -5.21875 C 2.992188 -7.019531 2.515625 -9.035156 2.515625 -11.265625 L 2.515625 -19.1875 C 2.515625 -22.519531 2.347656 -25.175781 2.015625 -27.15625 C 1.691406 -29.132812 1.289062 -30.410156 0.8125 -30.984375 L 0.8125 -31.515625 L 12.75 -31.515625 L 12.75 -30.984375 C 12.257812 -30.410156 11.847656 -29.132812 11.515625 -27.15625 C 11.191406 -25.175781 11.03125 -22.519531 11.03125 -19.1875 L 11.03125 -11.265625 C 11.03125 -8.222656 11.703125 -5.890625 13.046875 -4.265625 C 14.398438 -2.648438 16.160156 -1.84375 18.328125 -1.84375 C 20.484375 -1.84375 22.273438 -2.644531 23.703125 -4.25 C 25.128906 -5.863281 25.84375 -8.125 25.84375 -11.03125 L 25.84375 -19.1875 C 25.84375 -22.519531 25.675781 -25.175781 25.34375 -27.15625 C 25.019531 -29.132812 24.617188 -30.410156 24.140625 -30.984375 L 24.140625 -31.515625 L 28.6875 -31.515625 L 28.6875 -30.984375 C 28.207031 -30.410156 27.800781 -29.132812 27.46875 -27.15625 C 27.132812 -25.175781 26.96875 -22.519531 26.96875 -19.1875 L 26.96875 -10.984375 C 26.96875 -7.171875 25.910156 -4.289062 23.796875 -2.34375 C 21.679688 -0.394531 18.519531 0.578125 14.3125 0.578125 Z M 14.3125 0.578125 "/></g></g></g><g fill="#cc9966" fill-opacity="1"><g transform="translate(108.460595, 172.896033)"><g><path d="M 6.53125 -9.65625 L 6.53125 -8.640625 L 2.328125 -8.640625 L 2.328125 -5.375 L 5.734375 -5.375 L 5.734375 -4.359375 L 2.328125 -4.359375 L 2.328125 0 L 1.0625 0 L 1.0625 -9.65625 Z M 6.53125 -9.65625 "/></g></g></g><g fill="#cc9966" fill-opacity="1"><g transform="translate(115.442372, 172.896033)"><g><path d="M 5.453125 0.09375 C 4.554688 0.09375 3.738281 -0.113281 3 -0.53125 C 2.257812 -0.957031 1.671875 -1.546875 1.234375 -2.296875 C 0.804688 -3.046875 0.59375 -3.894531 0.59375 -4.84375 C 0.59375 -5.78125 0.804688 -6.625 1.234375 -7.375 C 1.671875 -8.132812 2.257812 -8.722656 3 -9.140625 C 3.738281 -9.554688 4.554688 -9.765625 5.453125 -9.765625 C 6.359375 -9.765625 7.175781 -9.554688 7.90625 -9.140625 C 8.644531 -8.722656 9.226562 -8.140625 9.65625 -7.390625 C 10.082031 -6.640625 10.296875 -5.789062 10.296875 -4.84375 C 10.296875 -3.882812 10.082031 -3.03125 9.65625 -2.28125 C 9.226562 -1.539062 8.644531 -0.957031 7.90625 -0.53125 C 7.175781 -0.113281 6.359375 0.09375 5.453125 0.09375 Z M 5.453125 -1 C 6.117188 -1 6.722656 -1.15625 7.265625 -1.46875 C 7.804688 -1.78125 8.234375 -2.226562 8.546875 -2.8125 C 8.859375 -3.394531 9.015625 -4.070312 9.015625 -4.84375 C 9.015625 -5.613281 8.859375 -6.285156 8.546875 -6.859375 C 8.234375 -7.441406 7.804688 -7.890625 7.265625 -8.203125 C 6.734375 -8.515625 6.128906 -8.671875 5.453125 -8.671875 C 4.765625 -8.671875 4.148438 -8.515625 3.609375 -8.203125 C 3.078125 -7.890625 2.65625 -7.441406 2.34375 -6.859375 C 2.039062 -6.285156 1.890625 -5.613281 1.890625 -4.84375 C 1.890625 -4.070312 2.039062 -3.394531 2.34375 -2.8125 C 2.65625 -2.226562 3.082031 -1.78125 3.625 -1.46875 C 4.164062 -1.15625 4.773438 -1 5.453125 -1 Z M 5.453125 -1 "/></g></g></g><g fill="#cc9966" fill-opacity="1"><g transform="translate(126.330611, 172.896033)"><g><path d="M 6.15625 0 L 3.859375 -3.953125 L 2.328125 -3.953125 L 2.328125 0 L 1.0625 0 L 1.0625 -9.65625 L 4.1875 -9.65625 C 4.914062 -9.65625 5.53125 -9.53125 6.03125 -9.28125 C 6.539062 -9.03125 6.921875 -8.691406 7.171875 -8.265625 C 7.421875 -7.847656 7.546875 -7.363281 7.546875 -6.8125 C 7.546875 -6.15625 7.351562 -5.570312 6.96875 -5.0625 C 6.582031 -4.550781 6.003906 -4.210938 5.234375 -4.046875 L 7.671875 0 Z M 2.328125 -4.96875 L 4.1875 -4.96875 C 4.875 -4.96875 5.382812 -5.132812 5.71875 -5.46875 C 6.0625 -5.800781 6.234375 -6.25 6.234375 -6.8125 C 6.234375 -7.382812 6.0625 -7.828125 5.71875 -8.140625 C 5.382812 -8.460938 4.875 -8.625 4.1875 -8.625 L 2.328125 -8.625 Z M 2.328125 -4.96875 "/></g></g></g><g fill="#cc9966" fill-opacity="1"><g transform="translate(134.753065, 172.896033)"><g/></g></g><g fill="#cc9966" fill-opacity="1"><g transform="translate(138.451744, 172.896033)"><g><path d="M 4.125 0.09375 C 3.488281 0.09375 2.914062 -0.015625 2.40625 -0.234375 C 1.90625 -0.460938 1.507812 -0.773438 1.21875 -1.171875 C 0.9375 -1.578125 0.796875 -2.046875 0.796875 -2.578125 L 2.140625 -2.578125 C 2.179688 -2.128906 2.363281 -1.75 2.6875 -1.4375 C 3.019531 -1.125 3.5 -0.96875 4.125 -0.96875 C 4.726562 -0.96875 5.203125 -1.117188 5.546875 -1.421875 C 5.898438 -1.722656 6.078125 -2.109375 6.078125 -2.578125 C 6.078125 -2.941406 5.972656 -3.238281 5.765625 -3.46875 C 5.554688 -3.707031 5.300781 -3.882812 5 -4 C 4.695312 -4.125 4.285156 -4.253906 3.765625 -4.390625 C 3.128906 -4.554688 2.617188 -4.722656 2.234375 -4.890625 C 1.847656 -5.054688 1.519531 -5.316406 1.25 -5.671875 C 0.976562 -6.023438 0.84375 -6.503906 0.84375 -7.109375 C 0.84375 -7.640625 0.976562 -8.109375 1.25 -8.515625 C 1.519531 -8.921875 1.894531 -9.234375 2.375 -9.453125 C 2.863281 -9.671875 3.421875 -9.78125 4.046875 -9.78125 C 4.953125 -9.78125 5.691406 -9.550781 6.265625 -9.09375 C 6.847656 -8.644531 7.175781 -8.046875 7.25 -7.296875 L 5.859375 -7.296875 C 5.816406 -7.671875 5.625 -8 5.28125 -8.28125 C 4.9375 -8.5625 4.484375 -8.703125 3.921875 -8.703125 C 3.390625 -8.703125 2.957031 -8.566406 2.625 -8.296875 C 2.300781 -8.023438 2.140625 -7.644531 2.140625 -7.15625 C 2.140625 -6.800781 2.238281 -6.507812 2.4375 -6.28125 C 2.632812 -6.0625 2.878906 -5.894531 3.171875 -5.78125 C 3.460938 -5.664062 3.867188 -5.535156 4.390625 -5.390625 C 5.023438 -5.210938 5.535156 -5.035156 5.921875 -4.859375 C 6.316406 -4.691406 6.648438 -4.429688 6.921875 -4.078125 C 7.203125 -3.722656 7.34375 -3.242188 7.34375 -2.640625 C 7.34375 -2.160156 7.21875 -1.710938 6.96875 -1.296875 C 6.71875 -0.878906 6.347656 -0.539062 5.859375 -0.28125 C 5.367188 -0.03125 4.789062 0.09375 4.125 0.09375 Z M 4.125 0.09375 "/></g></g></g><g fill="#cc9966" fill-opacity="1"><g transform="translate(146.583293, 172.896033)"><g><path d="M 2.296875 -9.65625 L 2.296875 -3.546875 C 2.296875 -2.691406 2.503906 -2.054688 2.921875 -1.640625 C 3.347656 -1.222656 3.9375 -1.015625 4.6875 -1.015625 C 5.425781 -1.015625 6.003906 -1.222656 6.421875 -1.640625 C 6.835938 -2.054688 7.046875 -2.691406 7.046875 -3.546875 L 7.046875 -9.65625 L 8.3125 -9.65625 L 8.3125 -3.5625 C 8.3125 -2.757812 8.148438 -2.082031 7.828125 -1.53125 C 7.503906 -0.976562 7.066406 -0.566406 6.515625 -0.296875 C 5.972656 -0.0351562 5.359375 0.09375 4.671875 0.09375 C 3.984375 0.09375 3.363281 -0.0351562 2.8125 -0.296875 C 2.269531 -0.566406 1.835938 -0.976562 1.515625 -1.53125 C 1.203125 -2.082031 1.046875 -2.757812 1.046875 -3.5625 L 1.046875 -9.65625 Z M 2.296875 -9.65625 "/></g></g></g><g fill="#cc9966" fill-opacity="1"><g transform="translate(155.933876, 172.896033)"><g><path d="M 7.53125 -6.828125 C 7.53125 -6.023438 7.253906 -5.359375 6.703125 -4.828125 C 6.148438 -4.296875 5.3125 -4.03125 4.1875 -4.03125 L 2.328125 -4.03125 L 2.328125 0 L 1.0625 0 L 1.0625 -9.65625 L 4.1875 -9.65625 C 5.28125 -9.65625 6.109375 -9.390625 6.671875 -8.859375 C 7.242188 -8.335938 7.53125 -7.660156 7.53125 -6.828125 Z M 4.1875 -5.078125 C 4.882812 -5.078125 5.398438 -5.226562 5.734375 -5.53125 C 6.066406 -5.832031 6.234375 -6.265625 6.234375 -6.828125 C 6.234375 -8.023438 5.550781 -8.625 4.1875 -8.625 L 2.328125 -8.625 L 2.328125 -5.078125 Z M 4.1875 -5.078125 "/></g></g></g><g fill="#cc9966" fill-opacity="1"><g transform="translate(163.954597, 172.896033)"><g><path d="M 7.53125 -6.828125 C 7.53125 -6.023438 7.253906 -5.359375 6.703125 -4.828125 C 6.148438 -4.296875 5.3125 -4.03125 4.1875 -4.03125 L 2.328125 -4.03125 L 2.328125 0 L 1.0625 0 L 1.0625 -9.65625 L 4.1875 -9.65625 C 5.28125 -9.65625 6.109375 -9.390625 6.671875 -8.859375 C 7.242188 -8.335938 7.53125 -7.660156 7.53125 -6.828125 Z M 4.1875 -5.078125 C 4.882812 -5.078125 5.398438 -5.226562 5.734375 -5.53125 C 6.066406 -5.832031 6.234375 -6.265625 6.234375 -6.828125 C 6.234375 -8.023438 5.550781 -8.625 4.1875 -8.625 L 2.328125 -8.625 L 2.328125 -5.078125 Z M 4.1875 -5.078125 "/></g></g></g><g fill="#cc9966" fill-opacity="1"><g transform="translate(171.975319, 172.896033)"><g><path d="M 5.453125 0.09375 C 4.554688 0.09375 3.738281 -0.113281 3 -0.53125 C 2.257812 -0.957031 1.671875 -1.546875 1.234375 -2.296875 C 0.804688 -3.046875 0.59375 -3.894531 0.59375 -4.84375 C 0.59375 -5.78125 0.804688 -6.625 1.234375 -7.375 C 1.671875 -8.132812 2.257812 -8.722656 3 -9.140625 C 3.738281 -9.554688 4.554688 -9.765625 5.453125 -9.765625 C 6.359375 -9.765625 7.175781 -9.554688 7.90625 -9.140625 C 8.644531 -8.722656 9.226562 -8.140625 9.65625 -7.390625 C 10.082031 -6.640625 10.296875 -5.789062 10.296875 -4.84375 C 10.296875 -3.882812 10.082031 -3.03125 9.65625 -2.28125 C 9.226562 -1.539062 8.644531 -0.957031 7.90625 -0.53125 C 7.175781 -0.113281 6.359375 0.09375 5.453125 0.09375 Z M 5.453125 -1 C 6.117188 -1 6.722656 -1.15625 7.265625 -1.46875 C 7.804688 -1.78125 8.234375 -2.226562 8.546875 -2.8125 C 8.859375 -3.394531 9.015625 -4.070312 9.015625 -4.84375 C 9.015625 -5.613281 8.859375 -6.285156 8.546875 -6.859375 C 8.234375 -7.441406 7.804688 -7.890625 7.265625 -8.203125 C 6.734375 -8.515625 6.128906 -8.671875 5.453125 -8.671875 C 4.765625 -8.671875 4.148438 -8.515625 3.609375 -8.203125 C 3.078125 -7.890625 2.65625 -7.441406 2.34375 -6.859375 C 2.039062 -6.285156 1.890625 -5.613281 1.890625 -4.84375 C 1.890625 -4.070312 2.039062 -3.394531 2.34375 -2.8125 C 2.65625 -2.226562 3.082031 -1.78125 3.625 -1.46875 C 4.164062 -1.15625 4.773438 -1 5.453125 -1 Z M 5.453125 -1 "/></g></g></g><g fill="#cc9966" fill-opacity="1"><g transform="translate(182.863558, 172.896033)"><g><path d="M 6.15625 0 L 3.859375 -3.953125 L 2.328125 -3.953125 L 2.328125 0 L 1.0625 0 L 1.0625 -9.65625 L 4.1875 -9.65625 C 4.914062 -9.65625 5.53125 -9.53125 6.03125 -9.28125 C 6.539062 -9.03125 6.921875 -8.691406 7.171875 -8.265625 C 7.421875 -7.847656 7.546875 -7.363281 7.546875 -6.8125 C 7.546875 -6.15625 7.351562 -5.570312 6.96875 -5.0625 C 6.582031 -4.550781 6.003906 -4.210938 5.234375 -4.046875 L 7.671875 0 Z M 2.328125 -4.96875 L 4.1875 -4.96875 C 4.875 -4.96875 5.382812 -5.132812 5.71875 -5.46875 C 6.0625 -5.800781 6.234375 -6.25 6.234375 -6.8125 C 6.234375 -7.382812 6.0625 -7.828125 5.71875 -8.140625 C 5.382812 -8.460938 4.875 -8.625 4.1875 -8.625 L 2.328125 -8.625 Z M 2.328125 -4.96875 "/></g></g></g><g fill="#cc9966" fill-opacity="1"><g transform="translate(191.286013, 172.896033)"><g><path d="M 7.015625 -9.65625 L 7.015625 -8.640625 L 4.375 -8.640625 L 4.375 0 L 3.125 0 L 3.125 -8.640625 L 0.46875 -8.640625 L 0.46875 -9.65625 Z M 7.015625 -9.65625 "/></g></g></g><g fill="#cc9966" fill-opacity="1"><g transform="translate(198.780338, 172.896033)"><g/></g></g><g fill="#cc9966" fill-opacity="1"><g transform="translate(202.479016, 172.896033)"><g><path d="M 4.125 0.09375 C 3.488281 0.09375 2.914062 -0.015625 2.40625 -0.234375 C 1.90625 -0.460938 1.507812 -0.773438 1.21875 -1.171875 C 0.9375 -1.578125 0.796875 -2.046875 0.796875 -2.578125 L 2.140625 -2.578125 C 2.179688 -2.128906 2.363281 -1.75 2.6875 -1.4375 C 3.019531 -1.125 3.5 -0.96875 4.125 -0.96875 C 4.726562 -0.96875 5.203125 -1.117188 5.546875 -1.421875 C 5.898438 -1.722656 6.078125 -2.109375 6.078125 -2.578125 C 6.078125 -2.941406 5.972656 -3.238281 5.765625 -3.46875 C 5.554688 -3.707031 5.300781 -3.882812 5 -4 C 4.695312 -4.125 4.285156 -4.253906 3.765625 -4.390625 C 3.128906 -4.554688 2.617188 -4.722656 2.234375 -4.890625 C 1.847656 -5.054688 1.519531 -5.316406 1.25 -5.671875 C 0.976562 -6.023438 0.84375 -6.503906 0.84375 -7.109375 C 0.84375 -7.640625 0.976562 -8.109375 1.25 -8.515625 C 1.519531 -8.921875 1.894531 -9.234375 2.375 -9.453125 C 2.863281 -9.671875 3.421875 -9.78125 4.046875 -9.78125 C 4.953125 -9.78125 5.691406 -9.550781 6.265625 -9.09375 C 6.847656 -8.644531 7.175781 -8.046875 7.25 -7.296875 L 5.859375 -7.296875 C 5.816406 -7.671875 5.625 -8 5.28125 -8.28125 C 4.9375 -8.5625 4.484375 -8.703125 3.921875 -8.703125 C 3.390625 -8.703125 2.957031 -8.566406 2.625 -8.296875 C 2.300781 -8.023438 2.140625 -7.644531 2.140625 -7.15625 C 2.140625 -6.800781 2.238281 -6.507812 2.4375 -6.28125 C 2.632812 -6.0625 2.878906 -5.894531 3.171875 -5.78125 C 3.460938 -5.664062 3.867188 -5.535156 4.390625 -5.390625 C 5.023438 -5.210938 5.535156 -5.035156 5.921875 -4.859375 C 6.316406 -4.691406 6.648438 -4.429688 6.921875 -4.078125 C 7.203125 -3.722656 7.34375 -3.242188 7.34375 -2.640625 C 7.34375 -2.160156 7.21875 -1.710938 6.96875 -1.296875 C 6.71875 -0.878906 6.347656 -0.539062 5.859375 -0.28125 C 5.367188 -0.03125 4.789062 0.09375 4.125 0.09375 Z M 4.125 0.09375 "/></g></g></g><g fill="#cc9966" fill-opacity="1"><g transform="translate(210.610565, 172.896033)"><g><path d="M 10.859375 -9.59375 L 10.859375 0 L 9.609375 0 L 9.609375 -7.15625 L 6.421875 0 L 5.53125 0 L 2.328125 -7.171875 L 2.328125 0 L 1.0625 0 L 1.0625 -9.59375 L 2.421875 -9.59375 L 5.96875 -1.65625 L 9.515625 -9.59375 Z M 10.859375 -9.59375 "/></g></g></g><g fill="#cc9966" fill-opacity="1"><g transform="translate(222.537761, 172.896033)"><g><path d="M 6.78125 -2.140625 L 2.5625 -2.140625 L 1.78125 0 L 0.453125 0 L 3.953125 -9.609375 L 5.40625 -9.609375 L 8.890625 0 L 7.546875 0 Z M 6.421875 -3.171875 L 4.671875 -8.046875 L 2.921875 -3.171875 Z M 6.421875 -3.171875 "/></g></g></g><g fill="#cc9966" fill-opacity="1"><g transform="translate(231.874496, 172.896033)"><g><path d="M 2.328125 -1.03125 L 5.703125 -1.03125 L 5.703125 0 L 1.0625 0 L 1.0625 -9.65625 L 2.328125 -9.65625 Z M 2.328125 -1.03125 "/></g></g></g><g fill="#cc9966" fill-opacity="1"><g transform="translate(237.858871, 172.896033)"><g><path d="M 2.328125 -1.03125 L 5.703125 -1.03125 L 5.703125 0 L 1.0625 0 L 1.0625 -9.65625 L 2.328125 -9.65625 Z M 2.328125 -1.03125 "/></g></g></g><g fill="#cc9966" fill-opacity="1"><g transform="translate(243.843247, 172.896033)"><g/></g></g><g fill="#cc9966" fill-opacity="1"><g transform="translate(247.541925, 172.896033)"><g><path d="M 5.90625 -4.96875 C 6.257812 -4.914062 6.578125 -4.773438 6.859375 -4.546875 C 7.148438 -4.316406 7.378906 -4.03125 7.546875 -3.6875 C 7.722656 -3.34375 7.8125 -2.976562 7.8125 -2.59375 C 7.8125 -2.101562 7.6875 -1.660156 7.4375 -1.265625 C 7.1875 -0.867188 6.820312 -0.554688 6.34375 -0.328125 C 5.875 -0.109375 5.316406 0 4.671875 0 L 1.0625 0 L 1.0625 -9.65625 L 4.53125 -9.65625 C 5.1875 -9.65625 5.742188 -9.546875 6.203125 -9.328125 C 6.671875 -9.117188 7.019531 -8.828125 7.25 -8.453125 C 7.476562 -8.085938 7.59375 -7.671875 7.59375 -7.203125 C 7.59375 -6.628906 7.4375 -6.15625 7.125 -5.78125 C 6.820312 -5.40625 6.414062 -5.132812 5.90625 -4.96875 Z M 2.328125 -5.484375 L 4.453125 -5.484375 C 5.035156 -5.484375 5.488281 -5.617188 5.8125 -5.890625 C 6.144531 -6.171875 6.3125 -6.554688 6.3125 -7.046875 C 6.3125 -7.535156 6.144531 -7.921875 5.8125 -8.203125 C 5.488281 -8.484375 5.023438 -8.625 4.421875 -8.625 L 2.328125 -8.625 Z M 4.5625 -1.046875 C 5.1875 -1.046875 5.675781 -1.191406 6.03125 -1.484375 C 6.382812 -1.773438 6.5625 -2.1875 6.5625 -2.71875 C 6.5625 -3.25 6.375 -3.671875 6 -3.984375 C 5.632812 -4.296875 5.140625 -4.453125 4.515625 -4.453125 L 2.328125 -4.453125 L 2.328125 -1.046875 Z M 4.5625 -1.046875 "/></g></g></g><g fill="#cc9966" fill-opacity="1"><g transform="translate(256.033641, 172.896033)"><g><path d="M 2.296875 -9.65625 L 2.296875 -3.546875 C 2.296875 -2.691406 2.503906 -2.054688 2.921875 -1.640625 C 3.347656 -1.222656 3.9375 -1.015625 4.6875 -1.015625 C 5.425781 -1.015625 6.003906 -1.222656 6.421875 -1.640625 C 6.835938 -2.054688 7.046875 -2.691406 7.046875 -3.546875 L 7.046875 -9.65625 L 8.3125 -9.65625 L 8.3125 -3.5625 C 8.3125 -2.757812 8.148438 -2.082031 7.828125 -1.53125 C 7.503906 -0.976562 7.066406 -0.566406 6.515625 -0.296875 C 5.972656 -0.0351562 5.359375 0.09375 4.671875 0.09375 C 3.984375 0.09375 3.363281 -0.0351562 2.8125 -0.296875 C 2.269531 -0.566406 1.835938 -0.976562 1.515625 -1.53125 C 1.203125 -2.082031 1.046875 -2.757812 1.046875 -3.5625 L 1.046875 -9.65625 Z M 2.296875 -9.65625 "/></g></g></g><g fill="#cc9966" fill-opacity="1"><g transform="translate(265.384223, 172.896033)"><g><path d="M 4.125 0.09375 C 3.488281 0.09375 2.914062 -0.015625 2.40625 -0.234375 C 1.90625 -0.460938 1.507812 -0.773438 1.21875 -1.171875 C 0.9375 -1.578125 0.796875 -2.046875 0.796875 -2.578125 L 2.140625 -2.578125 C 2.179688 -2.128906 2.363281 -1.75 2.6875 -1.4375 C 3.019531 -1.125 3.5 -0.96875 4.125 -0.96875 C 4.726562 -0.96875 5.203125 -1.117188 5.546875 -1.421875 C 5.898438 -1.722656 6.078125 -2.109375 6.078125 -2.578125 C 6.078125 -2.941406 5.972656 -3.238281 5.765625 -3.46875 C 5.554688 -3.707031 5.300781 -3.882812 5 -4 C 4.695312 -4.125 4.285156 -4.253906 3.765625 -4.390625 C 3.128906 -4.554688 2.617188 -4.722656 2.234375 -4.890625 C 1.847656 -5.054688 1.519531 -5.316406 1.25 -5.671875 C 0.976562 -6.023438 0.84375 -6.503906 0.84375 -7.109375 C 0.84375 -7.640625 0.976562 -8.109375 1.25 -8.515625 C 1.519531 -8.921875 1.894531 -9.234375 2.375 -9.453125 C 2.863281 -9.671875 3.421875 -9.78125 4.046875 -9.78125 C 4.953125 -9.78125 5.691406 -9.550781 6.265625 -9.09375 C 6.847656 -8.644531 7.175781 -8.046875 7.25 -7.296875 L 5.859375 -7.296875 C 5.816406 -7.671875 5.625 -8 5.28125 -8.28125 C 4.9375 -8.5625 4.484375 -8.703125 3.921875 -8.703125 C 3.390625 -8.703125 2.957031 -8.566406 2.625 -8.296875 C 2.300781 -8.023438 2.140625 -7.644531 2.140625 -7.15625 C 2.140625 -6.800781 2.238281 -6.507812 2.4375 -6.28125 C 2.632812 -6.0625 2.878906 -5.894531 3.171875 -5.78125 C 3.460938 -5.664062 3.867188 -5.535156 4.390625 -5.390625 C 5.023438 -5.210938 5.535156 -5.035156 5.921875 -4.859375 C 6.316406 -4.691406 6.648438 -4.429688 6.921875 -4.078125 C 7.203125 -3.722656 7.34375 -3.242188 7.34375 -2.640625 C 7.34375 -2.160156 7.21875 -1.710938 6.96875 -1.296875 C 6.71875 -0.878906 6.347656 -0.539062 5.859375 -0.28125 C 5.367188 -0.03125 4.789062 0.09375 4.125 0.09375 Z M 4.125 0.09375 "/></g></g></g><g fill="#cc9966" fill-opacity="1"><g transform="translate(273.515772, 172.896033)"><g><path d="M 2.328125 -9.65625 L 2.328125 0 L 1.0625 0 L 1.0625 -9.65625 Z M 2.328125 -9.65625 "/></g></g></g><g fill="#cc9966" fill-opacity="1"><g transform="translate(276.923546, 172.896033)"><g><path d="M 8.65625 0 L 7.40625 0 L 2.328125 -7.6875 L 2.328125 0 L 1.0625 0 L 1.0625 -9.671875 L 2.328125 -9.671875 L 7.40625 -2 L 7.40625 -9.671875 L 8.65625 -9.671875 Z M 8.65625 0 "/></g></g></g><g fill="#cc9966" fill-opacity="1"><g transform="translate(286.662013, 172.896033)"><g><path d="M 2.328125 -8.640625 L 2.328125 -5.40625 L 5.84375 -5.40625 L 5.84375 -4.359375 L 2.328125 -4.359375 L 2.328125 -1.046875 L 6.265625 -1.046875 L 6.265625 0 L 1.0625 0 L 1.0625 -9.671875 L 6.265625 -9.671875 L 6.265625 -8.640625 Z M 2.328125 -8.640625 "/></g></g></g><g fill="#cc9966" fill-opacity="1"><g transform="translate(293.768454, 172.896033)"><g><path d="M 4.125 0.09375 C 3.488281 0.09375 2.914062 -0.015625 2.40625 -0.234375 C 1.90625 -0.460938 1.507812 -0.773438 1.21875 -1.171875 C 0.9375 -1.578125 0.796875 -2.046875 0.796875 -2.578125 L 2.140625 -2.578125 C 2.179688 -2.128906 2.363281 -1.75 2.6875 -1.4375 C 3.019531 -1.125 3.5 -0.96875 4.125 -0.96875 C 4.726562 -0.96875 5.203125 -1.117188 5.546875 -1.421875 C 5.898438 -1.722656 6.078125 -2.109375 6.078125 -2.578125 C 6.078125 -2.941406 5.972656 -3.238281 5.765625 -3.46875 C 5.554688 -3.707031 5.300781 -3.882812 5 -4 C 4.695312 -4.125 4.285156 -4.253906 3.765625 -4.390625 C 3.128906 -4.554688 2.617188 -4.722656 2.234375 -4.890625 C 1.847656 -5.054688 1.519531 -5.316406 1.25 -5.671875 C 0.976562 -6.023438 0.84375 -6.503906 0.84375 -7.109375 C 0.84375 -7.640625 0.976562 -8.109375 1.25 -8.515625 C 1.519531 -8.921875 1.894531 -9.234375 2.375 -9.453125 C 2.863281 -9.671875 3.421875 -9.78125 4.046875 -9.78125 C 4.953125 -9.78125 5.691406 -9.550781 6.265625 -9.09375 C 6.847656 -8.644531 7.175781 -8.046875 7.25 -7.296875 L 5.859375 -7.296875 C 5.816406 -7.671875 5.625 -8 5.28125 -8.28125 C 4.9375 -8.5625 4.484375 -8.703125 3.921875 -8.703125 C 3.390625 -8.703125 2.957031 -8.566406 2.625 -8.296875 C 2.300781 -8.023438 2.140625 -7.644531 2.140625 -7.15625 C 2.140625 -6.800781 2.238281 -6.507812 2.4375 -6.28125 C 2.632812 -6.0625 2.878906 -5.894531 3.171875 -5.78125 C 3.460938 -5.664062 3.867188 -5.535156 4.390625 -5.390625 C 5.023438 -5.210938 5.535156 -5.035156 5.921875 -4.859375 C 6.316406 -4.691406 6.648438 -4.429688 6.921875 -4.078125 C 7.203125 -3.722656 7.34375 -3.242188 7.34375 -2.640625 C 7.34375 -2.160156 7.21875 -1.710938 6.96875 -1.296875 C 6.71875 -0.878906 6.347656 -0.539062 5.859375 -0.28125 C 5.367188 -0.03125 4.789062 0.09375 4.125 0.09375 Z M 4.125 0.09375 "/></g></g></g><g fill="#cc9966" fill-opacity="1"><g transform="translate(301.900014, 172.896033)"><g><path d="M 4.125 0.09375 C 3.488281 0.09375 2.914062 -0.015625 2.40625 -0.234375 C 1.90625 -0.460938 1.507812 -0.773438 1.21875 -1.171875 C 0.9375 -1.578125 0.796875 -2.046875 0.796875 -2.578125 L 2.140625 -2.578125 C 2.179688 -2.128906 2.363281 -1.75 2.6875 -1.4375 C 3.019531 -1.125 3.5 -0.96875 4.125 -0.96875 C 4.726562 -0.96875 5.203125 -1.117188 5.546875 -1.421875 C 5.898438 -1.722656 6.078125 -2.109375 6.078125 -2.578125 C 6.078125 -2.941406 5.972656 -3.238281 5.765625 -3.46875 C 5.554688 -3.707031 5.300781 -3.882812 5 -4 C 4.695312 -4.125 4.285156 -4.253906 3.765625 -4.390625 C 3.128906 -4.554688 2.617188 -4.722656 2.234375 -4.890625 C 1.847656 -5.054688 1.519531 -5.316406 1.25 -5.671875 C 0.976562 -6.023438 0.84375 -6.503906 0.84375 -7.109375 C 0.84375 -7.640625 0.976562 -8.109375 1.25 -8.515625 C 1.519531 -8.921875 1.894531 -9.234375 2.375 -9.453125 C 2.863281 -9.671875 3.421875 -9.78125 4.046875 -9.78125 C 4.953125 -9.78125 5.691406 -9.550781 6.265625 -9.09375 C 6.847656 -8.644531 7.175781 -8.046875 7.25 -7.296875 L 5.859375 -7.296875 C 5.816406 -7.671875 5.625 -8 5.28125 -8.28125 C 4.9375 -8.5625 4.484375 -8.703125 3.921875 -8.703125 C 3.390625 -8.703125 2.957031 -8.566406 2.625 -8.296875 C 2.300781 -8.023438 2.140625 -7.644531 2.140625 -7.15625 C 2.140625 -6.800781 2.238281 -6.507812 2.4375 -6.28125 C 2.632812 -6.0625 2.878906 -5.894531 3.171875 -5.78125 C 3.460938 -5.664062 3.867188 -5.535156 4.390625 -5.390625 C 5.023438 -5.210938 5.535156 -5.035156 5.921875 -4.859375 C 6.316406 -4.691406 6.648438 -4.429688 6.921875 -4.078125 C 7.203125 -3.722656 7.34375 -3.242188 7.34375 -2.640625 C 7.34375 -2.160156 7.21875 -1.710938 6.96875 -1.296875 C 6.71875 -0.878906 6.347656 -0.539062 5.859375 -0.28125 C 5.367188 -0.03125 4.789062 0.09375 4.125 0.09375 Z M 4.125 0.09375 "/></g></g></g><g clip-path="url(#da5a365ffe)"><g clip-path="url(#9b32db21b2)"><g clip-path="url(#0dc947590c)"><g clip-path="url(#7c3024e0bb)"><path fill="#b20809" d="M 297.542969 147.675781 C 297.625 147.664062 297.707031 147.644531 297.789062 147.621094 C 298.347656 147.460938 298.808594 147.0625 299.207031 146.636719 C 300.722656 145.023438 301.644531 142.859375 301.761719 140.644531 C 301.78125 140.230469 301.777344 139.808594 301.691406 139.402344 C 301.636719 139.125 301.472656 138.800781 301.1875 138.800781 C 301.007812 138.800781 300.863281 138.9375 300.734375 139.066406 C 300.363281 139.457031 300.003906 139.859375 299.660156 140.273438 C 299.496094 140.46875 299.304688 140.6875 299.050781 140.695312 C 298.804688 140.707031 298.59375 140.515625 298.457031 140.308594 C 297.992188 139.597656 298.0625 138.613281 297.527344 137.949219 C 297.410156 137.804688 297.234375 137.671875 297.054688 137.714844 C 296.925781 137.746094 296.835938 137.859375 296.757812 137.972656 C 296.476562 138.382812 296.261719 138.839844 296.132812 139.324219 C 296.066406 139.574219 296.019531 139.832031 295.90625 140.0625 C 295.789062 140.292969 295.589844 140.496094 295.335938 140.539062 C 295.054688 140.589844 294.773438 140.421875 294.570312 140.214844 C 294.367188 140.007812 294.207031 139.761719 293.988281 139.570312 C 292.714844 138.476562 292.585938 141.136719 292.679688 141.828125 C 292.890625 143.347656 293.527344 144.800781 294.464844 146.015625 C 294.867188 146.535156 295.328125 147.019531 295.898438 147.339844 C 296.398438 147.617188 296.984375 147.761719 297.542969 147.675781 " fill-opacity="1" fill-rule="nonzero"/></g></g></g></g></g></g></g></svg>